# xmcd
#
# Track frame offsets:
#	150
#	15677
#	28703
#	44562
#	61290
#	81645
#	99185
#	117295
#	133442
#	149356
#	164988
#	184022
#	201399
#	219963
#	236803
#	253877
#	271197
#	290497
#
# Disc length: 4135 seconds
#
# Revision: 1
# Processed by: cddbd v1.5PL3 Copyright (c) Steve Scherf et al.
# Submitted via: audiograbber 1.82.02
#
DISCID=20102512
DTITLE=Lonestar - from there to here GREATEST HITS
DYEAR=1900
DGENRE=Country
TTITLE0=Tequila Talkin
TTITLE1=No News
TTITLE2=Runnin Away With My Heart
TTITLE3=Come Cryin To Me
TTITLE4=You Walked In
TTITLE5=Everythings Changed
TTITLE6=Amazed
TTITLE7=Smile
TTITLE8=What About Now
TTITLE9=Tell Her
TTITLE10=I'm Already There
TTITLE11=With Me
TTITLE12=Not A Day Goes By
TTITLE13=My Front Porch Looking In
TTITLE14=I Pray
TTITLE15=Walking In Memphis
TTITLE16=Love Can Change Your Mind
TTITLE17=Gimme All Your Lovin
EXTD=
EXTT0=
EXTT1=
EXTT2=
EXTT3=
EXTT4=
EXTT5=
EXTT6=
EXTT7=
EXTT8=
EXTT9=
EXTT10=
EXTT11=
EXTT12=
EXTT13=
EXTT14=
EXTT15=
EXTT16=
EXTT17=
PLAYORDER=
